<svg width="109" height="36" viewBox="0 0 109 36" fill="none" xmlns="http://www.w3.org/2000/svg">
<path d="M92.7648 28.1827L88.4561 20.8815C89.4826 21.5072 92.7006 23.266 93.1665 23.9551C93.9132 23.0256 102.194 17.4775 107.705 15.6953C101.006 18.8929 94.9536 25.3526 92.7648 28.1827Z" fill="white"/>
<path d="M7.03198 33.5686C6.75242 33.5686 6.49435 33.5148 6.25778 33.4073C6.04273 33.3213 5.89217 33.1815 5.80616 32.9879L0.515753 19.6006C0.494248 19.5576 0.46199 19.4823 0.418977 19.3748C0.397473 19.2672 0.386719 19.1705 0.386719 19.0845C0.386719 18.8694 0.47274 18.6759 0.644787 18.5038C0.838339 18.3103 1.06415 18.1705 1.32222 18.0844C1.60179 17.9769 1.85986 17.9232 2.09642 17.9232C2.26847 17.9232 2.44051 17.9662 2.61256 18.0522C2.78461 18.1382 2.90289 18.2672 2.9674 18.4393L7.03198 29.4072L11.0966 18.5683C11.1611 18.3748 11.2579 18.2242 11.3869 18.1167C11.5374 17.9877 11.731 17.9232 11.9675 17.9232C12.1826 17.9232 12.4192 17.9769 12.6772 18.0844C12.9353 18.1705 13.1719 18.3103 13.3869 18.5038C13.602 18.6759 13.7095 18.8694 13.7095 19.0845C13.7095 19.192 13.688 19.2888 13.645 19.3748C13.6235 19.4608 13.602 19.5361 13.5805 19.6006L8.29007 32.9879C8.20406 33.16 8.04276 33.2997 7.80619 33.4073C7.56961 33.5148 7.31155 33.5686 7.03198 33.5686ZM22.503 33.5363C21.1051 33.5363 19.8685 33.2782 18.7933 32.7621C17.718 32.2245 16.8685 31.4932 16.2448 30.5685C15.6211 29.6222 15.3093 28.5255 15.3093 27.2781V23.891C15.3093 22.7942 15.5997 21.7834 16.1803 20.8587C16.7825 19.9339 17.5674 19.192 18.5352 18.6328C19.5029 18.0737 20.5675 17.7941 21.7288 17.7941C22.8471 17.7941 23.8686 18.0522 24.7933 18.5683C25.7396 19.0845 26.4923 19.7834 27.0514 20.6651C27.6321 21.5469 27.9224 22.5684 27.9224 23.7297C27.9224 24.5899 27.7826 25.2136 27.5031 25.6007C27.2235 25.9663 26.8687 26.1921 26.4385 26.2781C26.0084 26.3641 25.5568 26.4072 25.0837 26.4072H17.9868V27.3749C17.9868 28.5792 18.4169 29.5362 19.2771 30.2459C20.1373 30.9341 21.2449 31.2782 22.5998 31.2782C23.3955 31.2782 24.0299 31.1707 24.503 30.9556C24.9761 30.7406 25.3632 30.5363 25.6643 30.3427C25.9654 30.1277 26.2342 30.0201 26.4708 30.0201C26.7074 30.0201 26.9009 30.0954 27.0514 30.2459C27.2235 30.375 27.3525 30.5363 27.4385 30.7298C27.5246 30.9234 27.5676 31.0954 27.5676 31.2459C27.5676 31.5255 27.3633 31.8481 26.9547 32.2137C26.5461 32.5578 25.9547 32.8696 25.1804 33.1492C24.4277 33.4073 23.5353 33.5363 22.503 33.5363ZM17.9868 24.6007H23.9546C24.5353 24.6007 24.9116 24.5362 25.0837 24.4071C25.2772 24.2566 25.374 23.977 25.374 23.5684C25.374 22.9232 25.2127 22.3318 24.8901 21.7942C24.589 21.235 24.1589 20.7834 23.5998 20.4393C23.0406 20.0952 22.4062 19.9232 21.6965 19.9232C21.0299 19.9232 20.4169 20.0845 19.8578 20.4071C19.2986 20.7082 18.847 21.1275 18.5029 21.6651C18.1588 22.2028 17.9868 22.7942 17.9868 23.4394V24.6007ZM32.1755 33.2782C31.8099 33.2782 31.4981 33.1815 31.24 32.9879C31.0035 32.7729 30.8852 32.547 30.8852 32.3105V18.9232C30.8852 18.6436 31.0035 18.4178 31.24 18.2457C31.4981 18.0737 31.8099 17.9877 32.1755 17.9877C32.5411 17.9877 32.8422 18.0737 33.0788 18.2457C33.3153 18.4178 33.4336 18.6436 33.4336 18.9232V20.4393C33.6702 19.9877 33.9927 19.5683 34.4015 19.1812C34.81 18.7726 35.283 18.4393 35.8209 18.1812C36.3798 17.9232 36.9927 17.7941 37.6596 17.7941H38.7564C39.0359 17.7941 39.2726 17.9124 39.4661 18.149C39.681 18.3855 39.7887 18.6759 39.7887 19.0199C39.7887 19.3425 39.681 19.6221 39.4661 19.8587C39.2726 20.0952 39.0359 20.2135 38.7564 20.2135H37.6596C36.9713 20.2135 36.3153 20.4071 35.6919 20.7942C35.0681 21.1813 34.5519 21.7297 34.1434 22.4394C33.7562 23.1275 33.5626 23.9663 33.5626 24.9555V32.3105C33.5626 32.547 33.4229 32.7729 33.1433 32.9879C32.8852 33.1815 32.5626 33.2782 32.1755 33.2782ZM43.2336 13.7941C42.7819 13.7941 42.3843 13.6435 42.04 13.3424C41.7174 13.0199 41.5561 12.6542 41.5561 12.2456C41.5561 11.837 41.7174 11.4822 42.04 11.1811C42.3843 10.88 42.7819 10.7295 43.2336 10.7295C43.7069 10.7295 44.094 10.88 44.3949 11.1811C44.7175 11.4822 44.8788 11.837 44.8788 12.2456C44.8788 12.6542 44.7175 13.0199 44.3949 13.3424C44.094 13.6435 43.7069 13.7941 43.2336 13.7941ZM43.2336 33.2782C42.8465 33.2782 42.5239 33.1815 42.2658 32.9879C42.0295 32.7729 41.911 32.547 41.911 32.3105V18.9232C41.911 18.6436 42.0295 18.4178 42.2658 18.2457C42.5239 18.0737 42.8465 17.9877 43.2336 17.9877C43.5993 17.9877 43.911 18.0737 44.1691 18.2457C44.4489 18.4178 44.5884 18.6436 44.5884 18.9232V32.3105C44.5884 32.547 44.4489 32.7729 44.1691 32.9879C43.911 33.1815 43.5993 33.2782 43.2336 33.2782ZM49.6917 33.2782C49.326 33.2782 49.0143 33.1922 48.7562 33.0202C48.5196 32.8481 48.4014 32.6223 48.4014 32.3427V15.1812C48.4014 14.0844 48.67 13.0521 49.2079 12.0844C49.7668 11.0951 50.5732 10.2994 51.6272 9.69722C52.6809 9.07354 53.9604 8.76172 55.466 8.76172C56.3047 8.76172 57.1112 8.85849 57.8854 9.05205C58.6596 9.2241 59.2939 9.47141 59.7887 9.79399C60.3048 10.1166 60.5629 10.4714 60.5629 10.8585C60.5629 10.9876 60.5197 11.1811 60.4338 11.4392C60.3693 11.6758 60.2508 11.8908 60.079 12.0844C59.9282 12.2779 59.7564 12.3747 59.5628 12.3747C59.3476 12.3747 59.0895 12.2671 58.7886 12.0521C58.5088 11.837 58.1112 11.6327 57.5951 11.4392C57.1003 11.2241 56.412 11.1166 55.5305 11.1166C54.7346 11.1166 54.0466 11.2349 53.466 11.4714C52.9067 11.708 52.4442 12.0198 52.0789 12.4069C51.7345 12.794 51.4765 13.2242 51.3047 13.6973C51.1539 14.1489 51.0788 14.6113 51.0788 15.0844V17.9877H54.9499C55.2079 17.9877 55.412 18.0952 55.5628 18.3103C55.7132 18.5253 55.7886 18.7726 55.7886 19.0522C55.7886 19.3103 55.7132 19.5468 55.5628 19.7619C55.412 19.9769 55.2079 20.0845 54.9499 20.0845H51.0788V32.3427C51.0788 32.6223 50.9389 32.8481 50.6595 33.0202C50.3797 33.1922 50.0571 33.2782 49.6917 33.2782ZM60.079 33.2782C59.7133 33.2782 59.4016 33.1815 59.1435 32.9879C58.8854 32.7729 58.7564 32.547 58.7564 32.3105V18.9232C58.7564 18.6436 58.8854 18.4178 59.1435 18.2457C59.4016 18.0737 59.7133 17.9877 60.079 17.9877C60.4661 17.9877 60.7887 18.0737 61.0467 18.2457C61.3048 18.4178 61.4338 18.6436 61.4338 18.9232V32.3105C61.4338 32.547 61.3048 32.7729 61.0467 32.9879C60.7887 33.1815 60.4661 33.2782 60.079 33.2782ZM71.1586 33.5363C69.6747 33.5363 68.4489 33.2567 67.4811 32.6976C66.5348 32.1384 65.8251 31.3965 65.3521 30.4717C64.9005 29.5255 64.6746 28.4609 64.6746 27.2781V24.0523C64.6746 22.891 64.9005 21.8372 65.3521 20.8909C65.8251 19.9447 66.5348 19.192 67.4811 18.6328C68.4489 18.0737 69.6639 17.7941 71.1264 17.7941C72.0724 17.7941 72.9006 17.9124 73.6103 18.149C74.32 18.3855 74.8684 18.6759 75.2555 19.0199C75.6426 19.364 75.8361 19.6974 75.8361 20.02C75.8361 20.192 75.7821 20.3856 75.6748 20.6006C75.5886 20.7942 75.4595 20.9662 75.2877 21.1168C75.1369 21.2673 74.9543 21.3426 74.7393 21.3426C74.524 21.3426 74.2877 21.2458 74.0296 21.0522C73.793 20.8587 73.4595 20.6759 73.0296 20.5038C72.6208 20.3103 72.0401 20.2135 71.2877 20.2135C69.9756 20.2135 68.9864 20.5576 68.3199 21.2458C67.6747 21.934 67.3521 22.8695 67.3521 24.0523V27.2781C67.3521 28.4609 67.6747 29.3964 68.3199 30.0846C68.9864 30.7728 69.9864 31.1169 71.3199 31.1169C72.0941 31.1169 72.6962 31.0201 73.1264 30.8266C73.5563 30.6115 73.8897 30.418 74.1264 30.2459C74.3845 30.0524 74.6317 29.9556 74.8684 29.9556C75.1047 29.9556 75.3091 30.0309 75.4813 30.1814C75.6531 30.3104 75.7821 30.4717 75.8684 30.6653C75.9757 30.8588 76.0297 31.0524 76.0297 31.2459C76.0297 31.5685 75.8252 31.9126 75.4167 32.2782C75.0079 32.6223 74.4381 32.9234 73.707 33.1815C72.9756 33.418 72.1264 33.5363 71.1586 33.5363ZM80.0287 13.7941C79.5771 13.7941 79.1791 13.6435 78.8351 13.3424C78.5126 13.0199 78.3513 12.6542 78.3513 12.2456C78.3513 11.837 78.5126 11.4822 78.8351 11.1811C79.1791 10.88 79.5771 10.7295 80.0287 10.7295C80.5017 10.7295 80.8888 10.88 81.19 11.1811C81.5126 11.4822 81.6739 11.837 81.6739 12.2456C81.6739 12.6542 81.5126 13.0199 81.19 13.3424C80.8888 13.6435 80.5017 13.7941 80.0287 13.7941ZM80.0287 33.2782C79.6416 33.2782 79.319 33.1815 79.0609 32.9879C78.8243 32.7729 78.7061 32.547 78.7061 32.3105V18.9232C78.7061 18.6436 78.8243 18.4178 79.0609 18.2457C79.319 18.0737 79.6416 17.9877 80.0287 17.9877C80.3941 17.9877 80.7061 18.0737 80.9642 18.2457C81.2437 18.4178 81.3836 18.6436 81.3836 18.9232V32.3105C81.3836 32.547 81.2437 32.7729 80.9642 32.9879C80.7061 33.1815 80.3941 33.2782 80.0287 33.2782Z" fill="#3BE5BF"/>
<path d="M101.002 25.4745C100.69 29.8705 97.0435 33.1938 92.6475 32.8824C88.2515 32.5709 84.94 28.7547 85.2518 24.3586C85.3784 22.5666 86.0042 20.9549 87.098 19.6953" stroke="#3BE5BF" stroke-width="2.37695"/>
<path d="M87.0974 20.795C87.7532 20.8415 88.3225 20.3475 88.369 19.6917C88.4154 19.0358 87.9214 18.4665 87.2656 18.4201C86.6098 18.3736 86.0405 18.8676 85.994 19.5234C85.9475 20.1792 86.4415 20.7486 87.0974 20.795Z" fill="#3BE5BF"/>
<path d="M100.918 26.6581C101.573 26.7045 102.141 26.2113 102.187 25.5566C102.234 24.9019 101.741 24.3335 101.086 24.2871C100.431 24.2407 99.8628 24.7339 99.8164 25.3886C99.77 26.0434 100.263 26.6117 100.918 26.6581Z" fill="#3BE5BF"/>
<path d="M93.7706 17.8513C91.9186 17.7823 90.4732 16.2249 90.5422 14.3729C90.6113 12.5209 92.1686 11.0755 94.0206 11.1445C95.8727 11.2136 97.318 12.7709 97.249 14.6229C97.18 16.475 95.6226 17.9204 93.7706 17.8513Z" fill="white"/>
</svg>
