<svg width="156" height="52" viewBox="0 0 156 52" fill="none" xmlns="http://www.w3.org/2000/svg">
<path d="M132.764 40.3368L126.598 29.8872C128.067 30.7828 132.672 33.2999 133.339 34.2861C134.408 32.956 146.26 25.0155 154.146 22.4648C144.56 27.0412 135.897 36.2862 132.764 40.3368Z" fill="white"/>
<path d="M10.0644 48.0424C9.66426 48.0424 9.29491 47.9655 8.95633 47.8116C8.64856 47.6885 8.43307 47.4884 8.30997 47.2114L0.738384 28.0516C0.707607 27.99 0.661438 27.8823 0.599879 27.7284C0.569102 27.5745 0.553711 27.436 0.553711 27.3129C0.553711 27.0051 0.676825 26.7281 0.923057 26.4819C1.20007 26.2049 1.52324 26.0048 1.89259 25.8817C2.29271 25.7278 2.66206 25.6508 3.00063 25.6508C3.24686 25.6508 3.49309 25.7124 3.73932 25.8355C3.98555 25.9586 4.15483 26.1433 4.24717 26.3895L10.0644 42.0867L15.8816 26.5742C15.9739 26.2972 16.1124 26.0818 16.2971 25.9278C16.5125 25.7432 16.7895 25.6508 17.1281 25.6508C17.4359 25.6508 17.7745 25.7278 18.1438 25.8817C18.5131 26.0048 18.8517 26.2049 19.1595 26.4819C19.4673 26.7281 19.6212 27.0051 19.6212 27.3129C19.6212 27.4668 19.5904 27.6053 19.5289 27.7284C19.4981 27.8515 19.4673 27.9593 19.4365 28.0516L11.8649 47.2114C11.7418 47.4576 11.511 47.6577 11.1724 47.8116C10.8338 47.9655 10.4645 48.0424 10.0644 48.0424ZM32.2064 47.9963C30.2057 47.9963 28.436 47.6269 26.897 46.8882C25.3581 46.1188 24.1423 45.0723 23.2497 43.7488C22.3571 42.3945 21.9108 40.8248 21.9108 39.0396V34.192C21.9108 32.6222 22.3264 31.1756 23.1574 29.8521C24.0192 28.5287 25.1426 27.4668 26.5277 26.6665C27.9127 25.8663 29.4363 25.4662 31.0983 25.4662C32.6988 25.4662 34.1608 25.8355 35.4843 26.5742C36.8386 27.3129 37.9158 28.3132 38.7161 29.5751C39.5471 30.8371 39.9626 32.2991 39.9626 33.9611C39.9626 35.1923 39.7625 36.0849 39.3624 36.6389C38.9623 37.1621 38.4545 37.4853 37.8389 37.6084C37.2233 37.7315 36.5769 37.7931 35.8998 37.7931H25.7428V39.1781C25.7428 40.9018 26.3584 42.2714 27.5895 43.2871C28.8207 44.272 30.4058 44.7645 32.3449 44.7645C33.4837 44.7645 34.3917 44.6106 35.0688 44.3028C35.7459 43.995 36.2999 43.7026 36.7308 43.4256C37.1618 43.1178 37.5465 42.9639 37.885 42.9639C38.2236 42.9639 38.5006 43.0717 38.7161 43.2871C38.9623 43.4718 39.147 43.7026 39.2701 43.9796C39.3932 44.2566 39.4548 44.5029 39.4548 44.7183C39.4548 45.1184 39.1623 45.5801 38.5776 46.1034C37.9928 46.5958 37.1464 47.0421 36.0383 47.4422C34.961 47.8116 33.6837 47.9963 32.2064 47.9963ZM25.7428 35.2077H34.2839C35.115 35.2077 35.6536 35.1153 35.8998 34.9307C36.1768 34.7152 36.3153 34.3151 36.3153 33.7303C36.3153 32.8069 36.0845 31.9605 35.6228 31.191C35.1919 30.3908 34.5763 29.7444 33.7761 29.252C32.9758 28.7595 32.0678 28.5133 31.0521 28.5133C30.098 28.5133 29.2208 28.7441 28.4206 29.2058C27.6203 29.6367 26.9739 30.2369 26.4815 31.0064C25.989 31.7758 25.7428 32.6222 25.7428 33.5456V35.2077ZM46.0496 47.6269C45.5264 47.6269 45.0801 47.4884 44.7107 47.2114C44.3722 46.9036 44.2029 46.5805 44.2029 46.2419V27.0821C44.2029 26.6819 44.3722 26.3588 44.7107 26.1125C45.0801 25.8663 45.5264 25.7432 46.0496 25.7432C46.5728 25.7432 47.0038 25.8663 47.3423 26.1125C47.6809 26.3588 47.8502 26.6819 47.8502 27.0821V29.252C48.1887 28.6056 48.6503 28.0054 49.2354 27.4514C49.8201 26.8666 50.497 26.3895 51.2668 26.0202C52.0668 25.6508 52.944 25.4662 53.8984 25.4662H55.4681C55.8681 25.4662 56.2068 25.6354 56.4838 25.974C56.7915 26.3126 56.9455 26.7281 56.9455 27.2206C56.9455 27.6822 56.7915 28.0823 56.4838 28.4209C56.2068 28.7595 55.8681 28.9288 55.4681 28.9288H53.8984C52.9133 28.9288 51.9744 29.2058 51.0822 29.7598C50.1894 30.3138 49.4507 31.0987 48.8661 32.1144C48.3119 33.0993 48.0349 34.2997 48.0349 35.7155V46.2419C48.0349 46.5805 47.8348 46.9036 47.4347 47.2114C47.0653 47.4884 46.6036 47.6269 46.0496 47.6269ZM61.8758 19.7413C61.2294 19.7413 60.6604 19.5259 60.1676 19.095C59.7059 18.6333 59.4751 18.11 59.4751 17.5252C59.4751 16.9405 59.7059 16.4326 60.1676 16.0017C60.6604 15.5708 61.2294 15.3553 61.8758 15.3553C62.5533 15.3553 63.1073 15.5708 63.5379 16.0017C63.9995 16.4326 64.2304 16.9405 64.2304 17.5252C64.2304 18.11 63.9995 18.6333 63.5379 19.095C63.1073 19.5259 62.5533 19.7413 61.8758 19.7413ZM61.8758 47.6269C61.3218 47.6269 60.8601 47.4884 60.4908 47.2114C60.1525 46.9036 59.9829 46.5805 59.9829 46.2419V27.0821C59.9829 26.6819 60.1525 26.3588 60.4908 26.1125C60.8601 25.8663 61.3218 25.7432 61.8758 25.7432C62.3992 25.7432 62.8453 25.8663 63.2147 26.1125C63.6151 26.3588 63.8149 26.6819 63.8149 27.0821V46.2419C63.8149 46.5805 63.6151 46.9036 63.2147 47.2114C62.8453 47.4884 62.3992 47.6269 61.8758 47.6269ZM71.1187 47.6269C70.5953 47.6269 70.1491 47.5038 69.7798 47.2576C69.4411 47.0113 69.272 46.6881 69.272 46.288V21.7265C69.272 20.1568 69.6564 18.6794 70.4262 17.2944C71.2261 15.8786 72.3803 14.7397 73.8888 13.8779C75.3968 12.9853 77.2279 12.5391 79.3828 12.5391C80.5832 12.5391 81.7374 12.6776 82.8454 12.9546C83.9534 13.2008 84.8613 13.5548 85.5693 14.0164C86.308 14.4781 86.6774 14.986 86.6774 15.54C86.6774 15.7247 86.6157 16.0017 86.4927 16.371C86.4004 16.7096 86.2308 17.0174 85.9848 17.2944C85.7691 17.5714 85.5232 17.7099 85.2462 17.7099C84.938 17.7099 84.5687 17.556 84.1381 17.2482C83.7377 16.9405 83.1686 16.648 82.4299 16.371C81.7218 16.0633 80.7367 15.9093 79.4751 15.9093C78.336 15.9093 77.3514 16.0786 76.5204 16.4172C75.7199 16.7558 75.058 17.2021 74.5351 17.7561C74.0423 18.3101 73.673 18.9257 73.4271 19.6028C73.2113 20.2492 73.1039 20.9109 73.1039 21.588V25.7432H78.6441C79.0134 25.7432 79.3055 25.8971 79.5213 26.2049C79.7366 26.5126 79.8445 26.8666 79.8445 27.2667C79.8445 27.6361 79.7366 27.9747 79.5213 28.2824C79.3055 28.5902 79.0134 28.7441 78.6441 28.7441H73.1039V46.288C73.1039 46.6881 72.9037 47.0113 72.5037 47.2576C72.1033 47.5038 71.6416 47.6269 71.1187 47.6269ZM85.9848 47.6269C85.4614 47.6269 85.0153 47.4884 84.646 47.2114C84.2766 46.9036 84.0919 46.5805 84.0919 46.2419V27.0821C84.0919 26.6819 84.2766 26.3588 84.646 26.1125C85.0153 25.8663 85.4614 25.7432 85.9848 25.7432C86.5389 25.7432 87.0006 25.8663 87.3699 26.1125C87.7392 26.3588 87.9239 26.6819 87.9239 27.0821V46.2419C87.9239 46.5805 87.7392 46.9036 87.3699 47.2114C87.0006 47.4884 86.5389 47.6269 85.9848 47.6269ZM101.842 47.9963C99.7182 47.9963 97.9638 47.5962 96.5788 46.7959C95.2243 45.9956 94.2086 44.9338 93.5317 43.6103C92.8853 42.256 92.5621 40.7324 92.5621 39.0396V34.4228C92.5621 32.7607 92.8853 31.2526 93.5317 29.8983C94.2086 28.544 95.2243 27.4668 96.5788 26.6665C97.9638 25.8663 99.7026 25.4662 101.796 25.4662C103.15 25.4662 104.335 25.6354 105.351 25.974C106.366 26.3126 107.151 26.7281 107.705 27.2206C108.259 27.713 108.536 28.1901 108.536 28.6518C108.536 28.898 108.459 29.175 108.305 29.4828C108.182 29.7598 107.997 30.0061 107.751 30.2215C107.536 30.4369 107.274 30.5447 106.967 30.5447C106.658 30.5447 106.32 30.4062 105.951 30.1292C105.612 29.8521 105.135 29.5905 104.52 29.3443C103.935 29.0673 103.104 28.9288 102.027 28.9288C100.149 28.9288 98.7331 29.4212 97.7791 30.4062C96.8558 31.3911 96.3941 32.73 96.3941 34.4228V39.0396C96.3941 40.7324 96.8558 42.0713 97.7791 43.0563C98.7331 44.0412 100.164 44.5336 102.073 44.5336C103.181 44.5336 104.042 44.3951 104.658 44.1181C105.273 43.8104 105.751 43.5333 106.089 43.2871C106.459 43.0101 106.813 42.8716 107.151 42.8716C107.49 42.8716 107.782 42.9793 108.028 43.1948C108.274 43.3794 108.459 43.6103 108.582 43.8873C108.736 44.1643 108.813 44.4413 108.813 44.7183C108.813 45.18 108.521 45.6724 107.936 46.1957C107.351 46.6881 106.536 47.1191 105.489 47.4884C104.442 47.827 103.227 47.9963 101.842 47.9963ZM114.537 19.7413C113.89 19.7413 113.321 19.5259 112.829 19.095C112.367 18.6333 112.136 18.11 112.136 17.5252C112.136 16.9405 112.367 16.4326 112.829 16.0017C113.321 15.5708 113.89 15.3553 114.537 15.3553C115.214 15.3553 115.768 15.5708 116.199 16.0017C116.66 16.4326 116.891 16.9405 116.891 17.5252C116.891 18.11 116.66 18.6333 116.199 19.095C115.768 19.5259 115.214 19.7413 114.537 19.7413ZM114.537 47.6269C113.983 47.6269 113.521 47.4884 113.152 47.2114C112.813 46.9036 112.644 46.5805 112.644 46.2419V27.0821C112.644 26.6819 112.813 26.3588 113.152 26.1125C113.521 25.8663 113.983 25.7432 114.537 25.7432C115.06 25.7432 115.506 25.8663 115.876 26.1125C116.276 26.3588 116.476 26.6819 116.476 27.0821V46.2419C116.476 46.5805 116.276 46.9036 115.876 47.2114C115.506 47.4884 115.06 47.6269 114.537 47.6269Z" fill="white"/>
<path d="M144.553 36.4586C144.107 42.7502 138.888 47.5064 132.596 47.0607C126.305 46.615 121.565 41.1533 122.012 34.8616C122.193 32.2969 123.088 29.9902 124.654 28.1875" stroke="white" stroke-width="3.40187"/>
<path d="M124.653 29.7616C125.592 29.8281 126.406 29.1211 126.473 28.1825C126.539 27.2439 125.832 26.4291 124.894 26.3626C123.955 26.2961 123.14 27.0031 123.074 27.9417C123.007 28.8803 123.714 29.6951 124.653 29.7616Z" fill="white"/>
<path d="M144.433 38.1542C145.37 38.2206 146.183 37.5148 146.25 36.5777C146.316 35.6407 145.61 34.8272 144.673 34.7608C143.736 34.6944 142.923 35.4003 142.856 36.3373C142.79 37.2744 143.496 38.0878 144.433 38.1542Z" fill="white"/>
<path d="M134.204 25.5487C131.554 25.4499 129.485 23.221 129.584 20.5704C129.683 17.9198 131.911 15.8512 134.562 15.95C137.213 16.0488 139.281 18.2777 139.182 20.9283C139.084 23.5789 136.855 25.6475 134.204 25.5487Z" fill="white"/>
</svg>
