<svg width="32" height="32" viewBox="0 0 32 32" fill="none" xmlns="http://www.w3.org/2000/svg">
<path d="M12.0564 23.5294L6.30469 13.52C7.67497 14.3778 11.9708 16.7889 12.5927 17.7336C13.5895 16.4595 24.6442 8.85337 32.0001 6.41016C23.0582 10.7938 14.9783 19.6495 12.0564 23.5294Z" fill="#132574"/>
<path d="M23.0519 19.8173C22.6362 25.844 17.7679 30.3999 11.8997 29.9729C6.03145 29.546 1.61101 24.3143 2.02713 18.2876C2.1962 15.8309 3.03161 13.6213 4.49164 11.8945" stroke="#132574" stroke-width="2.37695"/>
<path d="M13.3987 9.36684C10.9264 9.27218 8.99697 7.13719 9.08915 4.59821C9.18132 2.05922 11.2602 0.0776994 13.7325 0.172357C16.2048 0.267015 18.1343 2.40201 18.0421 4.94099C17.9499 7.47998 15.871 9.4615 13.3987 9.36684Z" fill="#132574"/>
</svg>
