<svg width="122" height="42" viewBox="0 0 122 42" fill="none" xmlns="http://www.w3.org/2000/svg">
<path d="M103.828 32.4064L99.0059 24.2344C100.155 24.9348 103.757 26.9033 104.278 27.6745C105.114 26.6343 114.383 20.4244 120.55 18.4297C113.053 22.0087 106.278 29.2387 103.828 32.4064Z" fill="#3BE5BF"/>
<path d="M7.87141 38.4295C7.55851 38.4295 7.26966 38.3694 7.00487 38.249C6.76418 38.1527 6.59566 37.9962 6.49939 37.7796L0.578017 22.7957C0.553948 22.7475 0.517842 22.6633 0.4697 22.5429C0.44563 22.4225 0.433594 22.3142 0.433594 22.218C0.433594 21.9773 0.529875 21.7606 0.722441 21.5681C0.939077 21.3514 1.19182 21.1949 1.48067 21.0987C1.79358 20.9783 2.08243 20.9181 2.34721 20.9181C2.53977 20.9181 2.73234 20.9663 2.9249 21.0626C3.11747 21.1588 3.24986 21.3033 3.32207 21.4958L7.87141 33.7719L12.4208 21.6403C12.493 21.4236 12.6013 21.2551 12.7457 21.1348C12.9142 20.9904 13.1308 20.9181 13.3956 20.9181C13.6363 20.9181 13.9011 20.9783 14.1899 21.0987C14.4788 21.1949 14.7436 21.3514 14.9843 21.5681C15.225 21.7606 15.3453 21.9773 15.3453 22.218C15.3453 22.3383 15.3213 22.4466 15.2731 22.5429C15.2491 22.6392 15.225 22.7234 15.2009 22.7957L9.27954 37.7796C9.18327 37.9722 9.00274 38.1286 8.73796 38.249C8.47317 38.3694 8.18432 38.4295 7.87141 38.4295ZM25.1876 38.3934C23.623 38.3934 22.2389 38.1046 21.0354 37.5269C19.8319 36.9251 18.8811 36.1067 18.183 35.0717C17.485 34.0125 17.136 32.7849 17.136 31.3889V27.5977C17.136 26.3701 17.4609 25.2388 18.1108 24.2038C18.7848 23.1688 19.6634 22.3383 20.7466 21.7125C21.8297 21.0866 23.0212 20.7737 24.321 20.7737C25.5727 20.7737 26.7161 21.0626 27.7511 21.6403C28.8102 22.218 29.6527 23.0002 30.2785 23.9871C30.9284 24.9741 31.2534 26.1174 31.2534 27.4172C31.2534 28.38 31.0969 29.0781 30.784 29.5114C30.4711 29.9206 30.0739 30.1733 29.5925 30.2696C29.1111 30.3658 28.6056 30.414 28.0761 30.414H20.1328V31.4972C20.1328 32.8451 20.6142 33.9163 21.577 34.7106C22.5398 35.4809 23.7795 35.866 25.2959 35.866C26.1865 35.866 26.8966 35.7456 27.4262 35.5049C27.9557 35.2642 28.389 35.0356 28.726 34.8189C29.063 34.5782 29.3638 34.4579 29.6286 34.4579C29.8934 34.4579 30.11 34.5421 30.2785 34.7106C30.4711 34.855 30.6155 35.0356 30.7118 35.2522C30.8081 35.4688 30.8562 35.6614 30.8562 35.8299C30.8562 36.1428 30.6275 36.5039 30.1702 36.9131C29.7129 37.2982 29.0509 37.6472 28.1844 37.9601C27.3419 38.249 26.343 38.3934 25.1876 38.3934ZM20.1328 28.3921H26.8124C27.4623 28.3921 27.8835 28.3199 28.0761 28.1754C28.2927 28.007 28.401 27.694 28.401 27.2367C28.401 26.5146 28.2205 25.8526 27.8594 25.2509C27.5224 24.625 27.041 24.1195 26.4152 23.7344C25.7893 23.3493 25.0793 23.1567 24.2849 23.1567C23.5388 23.1567 22.8527 23.3372 22.2269 23.6983C21.6011 24.0353 21.0956 24.5047 20.7105 25.1064C20.3253 25.7082 20.1328 26.3701 20.1328 27.0923V28.3921ZM36.0137 38.1046C35.6045 38.1046 35.2555 37.9962 34.9667 37.7796C34.7019 37.5389 34.5695 37.2862 34.5695 37.0214V22.0374C34.5695 21.7245 34.7019 21.4718 34.9667 21.2792C35.2555 21.0866 35.6045 20.9904 36.0137 20.9904C36.4229 20.9904 36.7599 21.0866 37.0247 21.2792C37.2895 21.4718 37.4219 21.7245 37.4219 22.0374V23.7344C37.6866 23.2289 38.0476 22.7595 38.5052 22.3263C38.9624 21.8689 39.4918 21.4958 40.0939 21.207C40.7194 20.9181 41.4055 20.7737 42.1519 20.7737H43.3795C43.6923 20.7737 43.9572 20.9061 44.1738 21.1709C44.4144 21.4357 44.5349 21.7606 44.5349 22.1457C44.5349 22.5068 44.4144 22.8197 44.1738 23.0845C43.9572 23.3493 43.6923 23.4817 43.3795 23.4817H42.1519C41.3815 23.4817 40.6472 23.6983 39.9494 24.1316C39.2513 24.5648 38.6736 25.1786 38.2163 25.973C37.7829 26.7432 37.5663 27.682 37.5663 28.7892V37.0214C37.5663 37.2862 37.4098 37.5389 37.0969 37.7796C36.8081 37.9962 36.447 38.1046 36.0137 38.1046ZM48.3906 16.2966C47.8851 16.2966 47.4401 16.1281 47.0547 15.7911C46.6936 15.43 46.5131 15.0208 46.5131 14.5635C46.5131 14.1062 46.6936 13.709 47.0547 13.372C47.4401 13.035 47.8851 12.8665 48.3906 12.8665C48.9204 12.8665 49.3537 13.035 49.6904 13.372C50.0515 13.709 50.232 14.1062 50.232 14.5635C50.232 15.0208 50.0515 15.43 49.6904 15.7911C49.3537 16.1281 48.9204 16.2966 48.3906 16.2966ZM48.3906 38.1046C47.9573 38.1046 47.5963 37.9962 47.3074 37.7796C47.0429 37.5389 46.9103 37.2862 46.9103 37.0214V22.0374C46.9103 21.7245 47.0429 21.4718 47.3074 21.2792C47.5963 21.0866 47.9573 20.9904 48.3906 20.9904C48.7999 20.9904 49.1488 21.0866 49.4377 21.2792C49.7509 21.4718 49.9071 21.7245 49.9071 22.0374V37.0214C49.9071 37.2862 49.7509 37.5389 49.4377 37.7796C49.1488 37.9962 48.7999 38.1046 48.3906 38.1046ZM55.619 38.1046C55.2097 38.1046 54.8608 38.0083 54.5719 37.8157C54.307 37.6231 54.1748 37.3704 54.1748 37.0575V17.8491C54.1748 16.6215 54.4754 15.4661 55.0774 14.383C55.703 13.2757 56.6057 12.3851 57.7854 11.7111C58.9647 11.0131 60.3968 10.6641 62.082 10.6641C63.0207 10.6641 63.9234 10.7724 64.7899 10.989C65.6565 11.1816 66.3664 11.4584 66.9202 11.8195C67.4979 12.1805 67.7867 12.5777 67.7867 13.0109C67.7867 13.1554 67.7384 13.372 67.6423 13.6609C67.5701 13.9256 67.4374 14.1663 67.2451 14.383C67.0764 14.5996 66.8841 14.7079 66.6674 14.7079C66.4265 14.7079 66.1376 14.5876 65.8009 14.3469C65.4877 14.1062 65.0427 13.8775 64.465 13.6609C63.9112 13.4202 63.1408 13.2998 62.1542 13.2998C61.2633 13.2998 60.4933 13.4322 59.8434 13.697C59.2174 13.9617 58.6998 14.3108 58.2909 14.744C57.9055 15.1773 57.6166 15.6587 57.4243 16.1883C57.2556 16.6938 57.1716 17.2113 57.1716 17.7408V20.9904H61.5043C61.7931 20.9904 62.0216 21.1107 62.1903 21.3514C62.3587 21.5921 62.443 21.8689 62.443 22.1819C62.443 22.4707 62.3587 22.7355 62.1903 22.9762C62.0216 23.2169 61.7931 23.3372 61.5043 23.3372H57.1716V37.0575C57.1716 37.3704 57.015 37.6231 56.7022 37.8157C56.389 38.0083 56.028 38.1046 55.619 38.1046ZM67.2451 38.1046C66.8358 38.1046 66.4869 37.9962 66.1981 37.7796C65.9092 37.5389 65.7648 37.2862 65.7648 37.0214V22.0374C65.7648 21.7245 65.9092 21.4718 66.1981 21.2792C66.4869 21.0866 66.8358 20.9904 67.2451 20.9904C67.6784 20.9904 68.0395 21.0866 68.3283 21.2792C68.6172 21.4718 68.7616 21.7245 68.7616 22.0374V37.0214C68.7616 37.2862 68.6172 37.5389 68.3283 37.7796C68.0395 37.9962 67.6784 38.1046 67.2451 38.1046ZM79.6462 38.3934C77.9853 38.3934 76.6133 38.0805 75.5301 37.4547C74.4709 36.8288 73.6765 35.9984 73.1471 34.9633C72.6416 33.9042 72.3889 32.7127 72.3889 31.3889V27.7783C72.3889 26.4785 72.6416 25.299 73.1471 24.2399C73.6765 23.1808 74.4709 22.3383 75.5301 21.7125C76.6133 21.0866 77.9731 20.7737 79.6101 20.7737C80.6689 20.7737 81.5959 20.9061 82.3902 21.1709C83.1846 21.4357 83.7984 21.7606 84.2316 22.1457C84.6649 22.5309 84.8815 22.904 84.8815 23.265C84.8815 23.4576 84.8211 23.6742 84.701 23.9149C84.6045 24.1316 84.4601 24.3241 84.2677 24.4926C84.099 24.6611 83.8945 24.7454 83.6539 24.7454C83.413 24.7454 83.1485 24.6371 82.8596 24.4204C82.5947 24.2038 82.2215 23.9992 81.7403 23.8066C81.2827 23.59 80.6328 23.4817 79.7906 23.4817C78.322 23.4817 77.2149 23.8668 76.4689 24.6371C75.7467 25.4073 75.3857 26.4544 75.3857 27.7783V31.3889C75.3857 32.7127 75.7467 33.7598 76.4689 34.5301C77.2149 35.3003 78.3342 35.6855 79.8267 35.6855C80.6933 35.6855 81.3671 35.5771 81.8486 35.3605C82.3298 35.1198 82.703 34.9032 82.9679 34.7106C83.2568 34.494 83.5335 34.3857 83.7984 34.3857C84.0629 34.3857 84.2917 34.4699 84.4844 34.6384C84.6767 34.7828 84.8211 34.9633 84.9176 35.18C85.0377 35.3966 85.0982 35.6133 85.0982 35.8299C85.0982 36.1909 84.8694 36.5761 84.4122 36.9853C83.9546 37.3704 83.3168 37.7074 82.4985 37.9962C81.6799 38.261 80.7294 38.3934 79.6462 38.3934ZM89.5742 16.2966C89.0687 16.2966 88.6233 16.1281 88.2383 15.7911C87.8772 15.43 87.6967 15.0208 87.6967 14.5635C87.6967 14.1062 87.8772 13.709 88.2383 13.372C88.6233 13.035 89.0687 12.8665 89.5742 12.8665C90.1036 12.8665 90.5369 13.035 90.874 13.372C91.235 13.709 91.4156 14.1062 91.4156 14.5635C91.4156 15.0208 91.235 15.43 90.874 15.7911C90.5369 16.1281 90.1036 16.2966 89.5742 16.2966ZM89.5742 38.1046C89.1409 38.1046 88.7798 37.9962 88.491 37.7796C88.2261 37.5389 88.0938 37.2862 88.0938 37.0214V22.0374C88.0938 21.7245 88.2261 21.4718 88.491 21.2792C88.7798 21.0866 89.1409 20.9904 89.5742 20.9904C89.9831 20.9904 90.3324 21.0866 90.6212 21.2792C90.934 21.4718 91.0906 21.7245 91.0906 22.0374V37.0214C91.0906 37.2862 90.934 37.5389 90.6212 37.7796C90.3324 37.9962 89.9831 38.1046 89.5742 38.1046Z" fill="#132574"/>
<path d="M113.048 29.3746C112.699 34.295 108.617 38.0146 103.697 37.6661C98.7767 37.3175 95.0703 33.0462 95.4192 28.1258C95.561 26.12 96.2614 24.3161 97.4856 22.9062" stroke="#132574" stroke-width="2.66044"/>
<path d="M97.4845 24.1352C98.2186 24.1872 98.8558 23.6343 98.9078 22.9002C98.9598 22.1662 98.4069 21.529 97.6729 21.477C96.9388 21.425 96.3016 21.9779 96.2496 22.7119C96.1976 23.446 96.7505 24.0832 97.4845 24.1352Z" fill="#132574"/>
<path d="M112.953 30.7009C113.686 30.7528 114.322 30.2008 114.374 29.468C114.426 28.7352 113.874 28.099 113.141 28.0471C112.409 27.9952 111.772 28.5472 111.72 29.28C111.669 30.0128 112.221 30.649 112.953 30.7009Z" fill="#132574"/>
<path d="M104.955 20.8355C102.882 20.7582 101.264 19.0151 101.342 16.9422C101.419 14.8693 103.162 13.2515 105.235 13.3288C107.308 13.4061 108.926 15.1492 108.848 17.2221C108.771 19.295 107.028 20.9128 104.955 20.8355Z" fill="#3BE5BF"/>
</svg>
